<?xml version="1.0" standalone="no"?>
<!DOCTYPE svg PUBLIC "-//W3C//DTD SVG 20010904//EN"
 "http://www.w3.org/TR/2001/REC-SVG-20010904/DTD/svg10.dtd">
<svg version="1.0" xmlns="http://www.w3.org/2000/svg"
 width="1533.000000pt" height="1533.000000pt" viewBox="0 0 1533.000000 1533.000000"
 preserveAspectRatio="xMidYMid meet">
<metadata>
Created by potrace 1.11, written by Peter Selinger 2001-2013
</metadata>
<g transform="translate(0.000000,1533.000000) scale(0.100000,-0.100000)"
fill="#000000" stroke="none">
<path d="M7606 14778 c-22 -20 -49 -63 -148 -236 -10 -18 -53 -93 -95 -165
-41 -73 -128 -222 -191 -332 -63 -110 -135 -233 -159 -273 -24 -41 -43 -75
-43 -78 0 -3 -69 -121 -90 -154 -6 -8 -13 -22 -17 -30 -4 -8 -23 -42 -43 -75
-20 -33 -39 -67 -43 -75 -4 -8 -21 -37 -37 -65 -17 -27 -34 -57 -37 -65 -4 -8
-9 -17 -12 -20 -4 -3 -12 -16 -19 -30 -7 -14 -57 -101 -112 -195 -56 -93 -105
-180 -110 -193 -5 -12 -16 -25 -24 -28 -13 -5 -170 -43 -246 -60 -14 -3 -88
-23 -165 -45 -77 -22 -147 -42 -155 -44 -36 -9 -312 -106 -385 -135 -44 -18
-84 -33 -90 -35 -12 -2 -71 -28 -132 -56 -24 -10 -45 -19 -48 -19 -6 0 -275
-127 -295 -139 -8 -5 -48 -26 -87 -46 -40 -19 -123 -65 -184 -100 -61 -36
-115 -65 -119 -65 -4 0 -15 -9 -25 -20 -10 -11 -23 -20 -29 -20 -9 0 -69 -37
-112 -67 -20 -15 -49 -33 -64 -40 -8 -4 -20 -12 -27 -18 -6 -7 -35 -27 -65
-46 -29 -19 -60 -39 -68 -46 -8 -6 -71 -53 -140 -104 -69 -51 -127 -95 -130
-98 -3 -3 -21 -18 -40 -32 -19 -15 -45 -35 -56 -45 -12 -11 -43 -37 -70 -59
-26 -22 -58 -49 -70 -60 -12 -11 -57 -51 -100 -90 -138 -125 -375 -367 -489
-501 -22 -25 -47 -54 -55 -63 -23 -25 -213 -262 -230 -287 -22 -32 -147 -207
-157 -219 -21 -26 -107 -159 -120 -185 -4 -8 -15 -24 -25 -34 -10 -11 -18 -23
-18 -28 0 -4 -16 -32 -35 -62 -19 -30 -35 -60 -35 -66 0 -5 -4 -10 -8 -10 -5
0 -14 -16 -22 -35 -8 -19 -18 -35 -24 -35 -5 0 -6 -3 -3 -7 4 -3 1 -13 -7 -22
-7 -9 -28 -45 -47 -81 -18 -36 -41 -76 -50 -90 -9 -14 -17 -27 -16 -30 0 -3
-27 -61 -60 -130 -63 -130 -152 -335 -198 -455 -67 -176 -183 -531 -200 -610
-2 -11 -13 -54 -24 -95 -11 -41 -22 -86 -25 -100 -3 -14 -12 -56 -21 -95 -9
-38 -18 -79 -21 -90 -2 -11 -8 -45 -14 -75 -5 -30 -11 -66 -14 -80 -3 -13 -8
-40 -11 -60 -3 -20 -7 -45 -9 -55 -2 -11 -7 -45 -11 -75 -4 -30 -9 -63 -10
-72 -2 -9 -6 -43 -10 -75 -3 -32 -8 -71 -10 -88 -36 -265 -41 -915 -10 -1220
3 -22 7 -65 10 -95 6 -63 13 -117 21 -175 3 -22 7 -51 9 -65 5 -38 17 -113 21
-135 2 -11 8 -45 14 -75 5 -30 12 -66 15 -80 3 -14 8 -38 11 -55 4 -23 39
-179 69 -305 2 -8 17 -64 35 -125 17 -60 33 -117 35 -125 2 -8 8 -27 14 -43
10 -27 22 -72 23 -92 1 -8 -111 -210 -142 -255 -6 -8 -13 -21 -17 -29 -3 -8
-35 -63 -70 -123 -35 -60 -63 -113 -63 -119 0 -5 -4 -9 -10 -9 -5 0 -10 -4
-10 -9 0 -7 -403 -712 -430 -751 -6 -8 -16 -26 -22 -40 -7 -14 -19 -36 -29
-50 -9 -14 -27 -45 -41 -70 -27 -47 -136 -236 -303 -525 -54 -93 -108 -186
-119 -206 -12 -20 -44 -77 -72 -125 -28 -49 -62 -109 -76 -134 -14 -25 -80
-139 -147 -253 -67 -114 -121 -212 -121 -217 0 -4 -3 -10 -7 -12 -8 -3 -24
-30 -69 -113 -14 -27 -32 -57 -39 -65 -7 -8 -15 -31 -18 -51 -6 -50 23 -95 71
-109 40 -12 3656 -9 3722 2 19 4 62 9 95 13 33 3 67 8 75 10 8 2 35 6 60 9 25
3 56 8 70 11 136 27 138 27 170 -5 3 -3 14 -10 25 -16 11 -6 70 -43 130 -81
61 -38 130 -80 155 -94 25 -13 49 -28 55 -32 37 -31 457 -238 620 -306 83 -35
159 -67 170 -72 62 -27 451 -162 503 -174 9 -3 67 -18 127 -35 61 -17 121 -33
135 -36 14 -3 33 -7 42 -10 9 -3 25 -7 35 -9 10 -2 61 -13 113 -25 52 -12 106
-23 120 -25 14 -2 36 -6 50 -9 27 -6 66 -13 120 -22 19 -3 60 -9 90 -14 30 -5
80 -12 110 -16 30 -4 66 -8 80 -10 29 -4 104 -12 175 -19 275 -27 902 -27
1110 0 17 2 63 6 104 10 41 4 82 8 91 10 9 2 41 6 71 10 30 3 95 13 144 21 50
8 104 17 120 20 17 2 75 13 130 24 140 28 135 27 185 39 25 7 56 14 69 17 13
3 74 19 135 35 61 17 118 32 126 34 8 2 58 18 110 35 52 17 102 33 110 34 8 2
65 22 126 45 61 23 114 41 118 41 3 0 25 8 49 19 23 10 110 47 192 82 151 63
441 205 570 279 39 21 77 43 85 47 52 27 166 98 168 105 2 4 8 8 13 8 5 0 49
26 97 57 48 31 91 56 97 54 5 -1 23 -4 40 -7 16 -2 39 -6 50 -8 11 -2 45 -8
75 -12 30 -4 57 -9 60 -9 3 -1 30 -5 60 -8 30 -4 75 -10 100 -14 56 -8 3662
-16 3707 -8 81 15 107 84 64 168 -29 57 -53 99 -61 107 -3 3 -18 30 -34 60
-16 30 -34 62 -41 70 -7 8 -18 30 -26 48 -8 17 -17 32 -21 32 -5 0 -8 4 -8 9
0 4 -30 60 -66 122 -37 63 -74 128 -83 144 -9 17 -68 119 -131 228 -63 109
-124 215 -136 235 -11 20 -31 55 -44 77 -12 22 -33 58 -45 80 -37 64 -144 249
-155 265 -6 8 -14 25 -20 37 -5 12 -20 39 -33 60 -13 21 -42 70 -65 108 -37
65 -322 560 -362 629 -10 17 -41 71 -69 119 -28 49 -51 93 -51 98 0 5 -4 9
-10 9 -5 0 -10 4 -10 10 0 5 -36 71 -80 146 -44 75 -80 141 -80 145 0 5 -4 9
-8 9 -4 0 -13 12 -19 28 -7 15 -28 54 -48 87 -61 104 -60 98 -37 162 46 132
131 444 166 618 4 17 9 41 11 55 12 56 35 177 40 210 3 19 7 46 10 60 2 14 7
43 9 65 3 22 8 63 12 90 3 28 8 52 9 55 2 3 6 44 10 90 4 47 8 99 11 115 26
206 26 819 -1 1105 -1 19 -6 65 -9 102 -3 36 -8 72 -10 80 -3 7 -7 42 -11 78
-3 36 -8 74 -11 85 -3 11 -6 36 -8 55 -2 19 -6 46 -10 60 -3 14 -8 41 -11 60
-2 19 -7 46 -10 60 -2 14 -7 36 -10 50 -2 14 -7 39 -10 55 -5 32 -9 47 -25
110 -5 22 -12 56 -15 75 -3 19 -10 46 -15 60 -4 14 -14 48 -20 75 -14 53 -48
174 -75 264 -9 30 -18 62 -20 70 -2 9 -10 34 -18 56 -8 22 -18 49 -23 60 -4
11 -8 25 -10 30 -2 9 -44 128 -66 185 -5 14 -9 26 -8 28 0 1 -6 15 -14 30 -8
15 -20 43 -27 62 -12 33 -30 76 -77 180 -11 25 -20 47 -20 50 1 10 -230 458
-242 470 -3 3 -16 25 -29 50 -14 25 -51 87 -83 138 -32 51 -58 97 -58 103 0 5
-4 9 -9 9 -5 0 -13 9 -16 20 -5 15 -12 19 -25 15 -17 -5 -50 17 -50 34 0 20
-343 374 -492 508 -182 163 -437 369 -548 443 -12 8 -32 22 -44 31 -234 175
-653 412 -991 559 -417 181 -955 335 -1349 385 -22 2 -45 10 -52 17 -6 7 -65
108 -132 224 -66 116 -130 226 -141 245 -11 19 -27 47 -35 63 l-16 29 103 -7
c56 -4 118 -9 137 -12 107 -15 181 -28 234 -40 33 -7 63 -11 67 -8 4 2 9 1 11
-4 1 -4 28 -15 58 -25 30 -10 62 -21 70 -23 36 -12 -50 48 -114 80 -112 54
-359 121 -526 141 -108 12 -107 12 -147 82 -21 35 -42 72 -48 81 -5 10 -28 49
-50 87 -22 39 -44 78 -50 87 -5 9 -23 41 -39 70 -16 29 -44 77 -62 106 -19 29
-34 54 -34 56 0 3 -44 81 -98 174 -54 93 -102 175 -105 183 -4 8 -17 30 -28
49 -25 41 -196 336 -229 395 -13 22 -31 54 -41 70 -11 17 -22 37 -26 45 -4 8
-33 59 -65 113 -32 54 -58 100 -58 102 0 2 -27 49 -60 104 -33 56 -60 106 -60
111 0 6 -3 10 -7 10 -5 0 -19 23 -33 51 -14 28 -38 62 -53 75 -38 32 -96 32
-131 2z m-1549 -2663 c0 -8 -4 -15 -9 -15 -5 0 -13 -11 -18 -25 -5 -14 -68
-126 -139 -248 -204 -351 -231 -399 -231 -408 0 -4 -6 -14 -13 -21 -7 -7 -34
-51 -61 -98 -27 -47 -60 -105 -74 -129 -13 -25 -38 -68 -55 -95 -16 -28 -38
-65 -47 -82 -84 -147 -118 -198 -139 -212 -102 -61 -241 -178 -241 -202 0 -5
34 3 75 18 41 14 77 23 81 20 3 -4 -3 -19 -14 -35 -10 -15 -29 -46 -41 -68
-40 -75 -170 -301 -192 -335 -32 -51 -139 -243 -139 -251 0 -5 -4 -9 -10 -9
-5 0 -10 -4 -10 -9 0 -5 -20 -44 -45 -85 -25 -42 -45 -81 -45 -86 0 -6 -4 -10
-10 -10 -5 0 -10 -4 -10 -9 0 -5 -70 -129 -155 -276 -85 -147 -155 -269 -155
-272 0 -2 -8 -16 -19 -31 -10 -15 -92 -155 -181 -312 -90 -157 -178 -310 -196
-340 -35 -59 -239 -412 -271 -470 -11 -19 -34 -59 -52 -88 -17 -29 -31 -54
-31 -56 0 -3 -98 -171 -120 -206 -5 -8 -18 -31 -28 -50 -19 -35 -335 -582
-352 -610 -6 -8 -19 -32 -30 -52 -39 -72 -80 -132 -81 -117 0 7 -2 23 -4 33
-2 11 -7 63 -10 115 -3 53 -9 125 -13 161 -9 78 -6 607 3 668 4 24 3 42 -3 42
-5 0 -7 11 -4 25 2 14 7 25 11 25 4 0 7 10 8 23 0 36 15 200 19 222 13 59 15
97 7 92 -11 -7 -4 56 8 63 4 3 11 21 14 40 3 19 8 42 10 50 9 31 20 116 20
157 0 22 3 39 7 37 4 -3 10 8 14 23 3 15 12 51 20 78 8 28 15 64 17 80 2 17 9
44 16 60 7 17 15 53 18 80 4 28 13 55 22 62 9 7 13 13 9 13 -10 0 106 327 158
445 118 270 224 479 319 630 46 73 210 320 215 325 3 3 35 43 70 90 62 83 231
286 305 365 129 140 275 281 445 430 140 123 571 445 595 445 4 0 21 11 38 24
82 61 358 216 532 299 208 100 192 94 192 72z m1666 -106 c26 -44 47 -84 47
-90 0 -5 5 -9 10 -9 6 0 10 -4 10 -9 0 -8 110 -202 161 -286 11 -16 22 -37 26
-45 9 -19 200 -350 213 -370 6 -8 13 -23 16 -32 4 -10 10 -18 15 -18 5 0 9 -5
9 -10 0 -9 12 -31 83 -153 11 -18 29 -50 40 -72 12 -22 24 -42 27 -45 9 -9 30
-44 39 -66 5 -11 28 -51 50 -88 23 -36 41 -68 41 -71 0 -4 38 -69 78 -130 6
-11 16 -29 21 -40 5 -11 30 -56 56 -100 27 -44 58 -98 71 -120 12 -22 52 -91
88 -154 59 -103 64 -116 51 -131 -8 -9 -15 -19 -15 -22 0 -4 -45 -83 -100
-177 -55 -94 -100 -175 -100 -181 0 -5 -4 -10 -10 -10 -5 0 -10 -4 -10 -8 0
-5 -39 -76 -86 -158 -48 -82 -97 -167 -110 -189 -13 -22 -29 -51 -36 -65 -7
-14 -15 -27 -19 -30 -3 -3 -12 -20 -20 -37 -8 -18 -17 -33 -21 -33 -5 0 -8 -4
-8 -9 0 -5 -27 -55 -60 -111 -33 -56 -60 -103 -60 -105 0 -2 -22 -40 -50 -84
-27 -45 -50 -85 -51 -89 -2 -6 -19 -37 -56 -97 -10 -17 -110 -191 -149 -260
-53 -94 -187 -322 -193 -328 -4 -4 -13 32 -21 80 -7 48 -14 97 -16 108 -25
126 -25 785 0 925 2 14 7 54 11 90 3 36 8 74 10 85 2 11 7 43 10 70 11 82 13
101 24 162 6 32 13 72 16 88 2 17 7 41 10 55 3 14 8 39 10 55 3 17 9 45 15 64
5 19 8 36 6 38 -10 10 -185 -270 -263 -422 -99 -190 -198 -457 -265 -714 l-14
-55 -83 145 c-46 79 -90 154 -97 166 -8 13 -13 24 -12 25 2 2 -8 18 -20 36
-29 40 -80 130 -88 155 -4 9 -10 17 -15 17 -5 0 -9 6 -9 14 0 8 -6 21 -12 28
-7 8 -21 29 -32 48 -38 71 -58 106 -82 145 -14 22 -27 48 -31 58 -3 9 -9 17
-14 17 -5 0 -9 5 -9 10 0 9 -24 52 -81 148 -70 119 -71 122 -75 237 -2 103
-25 273 -39 295 -4 6 7 32 22 58 16 26 33 54 37 62 4 8 12 24 19 35 10 17 59
100 129 220 9 17 23 42 30 58 7 15 16 27 20 27 4 0 8 4 8 10 0 5 23 47 50 94
28 47 50 87 50 91 0 3 5 11 10 18 6 7 56 91 111 187 56 96 134 232 175 302 41
70 74 132 74 138 0 5 3 10 8 10 4 0 20 26 37 58 16 31 42 76 57 98 16 23 28
45 28 48 0 3 27 52 60 108 33 57 67 114 75 128 8 14 36 62 62 108 25 45 49 82
53 82 3 0 27 -36 53 -81z m2407 -1257 c0 -3 26 -34 58 -71 122 -138 289 -361
404 -536 147 -225 311 -538 392 -750 15 -38 31 -79 36 -90 29 -67 116 -373
107 -381 -2 -3 -181 301 -337 575 -25 43 -84 144 -97 166 -7 11 -16 27 -20 35
-4 8 -77 137 -163 285 -86 149 -173 300 -194 337 -21 37 -42 70 -47 74 -5 3
-7 10 -4 15 4 5 1 9 -4 9 -6 0 -11 4 -11 9 0 8 -93 175 -110 196 -4 6 -24 42
-45 80 -21 39 -44 77 -51 86 -8 8 -14 18 -14 22 0 3 -14 30 -31 59 l-31 53 81
-85 c45 -46 81 -86 81 -88z m-402 -2214 c12 -24 30 -56 40 -73 9 -16 37 -64
61 -105 24 -41 51 -86 59 -100 9 -14 17 -27 17 -30 0 -3 8 -16 17 -30 35 -55
88 -152 88 -161 0 -5 5 -9 10 -9 6 0 10 -4 10 -10 0 -5 14 -33 31 -62 18 -29
45 -78 62 -108 16 -30 35 -62 41 -70 7 -8 17 -26 24 -40 7 -14 16 -32 22 -40
17 -27 200 -343 200 -346 0 -2 18 -33 40 -69 22 -36 40 -67 40 -69 0 -2 27
-50 60 -105 33 -56 60 -106 60 -111 0 -6 5 -10 10 -10 6 0 10 -4 10 -10 0 -5
22 -47 49 -92 27 -46 59 -101 71 -123 12 -22 31 -54 41 -71 l19 -31 -83 -84
c-175 -177 -391 -350 -500 -400 -15 -7 -27 -15 -27 -19 0 -3 -16 -12 -35 -19
-19 -7 -33 -17 -30 -22 4 -5 0 -10 -7 -10 -37 -4 -60 -10 -138 -38 -97 -34
-132 -41 -290 -57 -96 -10 -156 -7 -250 12 -41 9 -79 17 -85 18 -5 1 -26 7
-45 15 -19 7 -53 20 -75 28 -61 23 -308 146 -323 160 -7 7 -21 14 -30 14 -9 1
-21 2 -27 4 -5 1 -15 3 -22 3 -7 1 -10 9 -6 17 3 9 2 15 -3 14 -5 -1 -21 -1
-36 0 -20 1 -26 5 -22 16 4 10 0 15 -15 15 -12 0 -21 5 -21 10 0 18 -40 50
-65 52 -22 2 -31 10 -22 21 6 9 -27 37 -44 37 -11 0 -19 7 -19 15 0 8 -6 15
-12 15 -7 0 -23 11 -36 24 -25 26 -23 65 4 87 8 6 14 15 14 19 0 4 29 57 65
118 36 60 65 114 65 120 0 6 4 12 8 14 7 3 40 58 121 201 38 66 58 101 90 155
17 29 31 57 31 62 0 6 4 10 9 10 5 0 14 12 20 28 6 15 20 43 32 62 87 144 239
412 239 420 0 5 5 10 10 10 6 0 10 4 10 9 0 5 38 73 84 152 165 285 226 392
226 397 0 3 6 13 14 21 7 9 27 41 43 71 45 84 67 120 74 120 3 0 15 -19 27
-42z m-3738 -553 c29 -49 64 -110 78 -135 13 -25 28 -49 32 -55 4 -5 21 -35
38 -65 16 -30 59 -106 96 -168 36 -62 77 -132 90 -155 13 -23 46 -81 75 -129
28 -48 51 -90 51 -93 0 -4 14 -26 30 -50 17 -24 30 -46 30 -50 0 -3 12 -24 27
-48 14 -23 40 -67 56 -97 17 -30 44 -77 62 -105 17 -27 39 -67 48 -87 10 -20
22 -40 27 -43 6 -3 10 -13 10 -22 0 -9 7 -21 15 -27 9 -6 17 -21 18 -33 0 -12
5 -19 9 -17 7 5 12 -10 9 -28 0 -5 4 -8 9 -8 6 0 10 -7 10 -15 0 -8 4 -15 9
-15 12 0 20 -35 11 -49 -4 -8 -14 -9 -32 -2 -18 7 -25 6 -25 -4 0 -7 8 -10 19
-7 20 5 21 2 12 -22 -3 -9 -10 -13 -15 -10 -5 3 -9 -2 -9 -10 0 -8 -10 -22
-22 -30 -12 -9 -18 -16 -13 -16 6 0 6 -3 -1 -8 -5 -4 -25 -28 -44 -54 -18 -27
-37 -48 -42 -48 -4 0 -8 -7 -8 -15 0 -8 -4 -15 -10 -15 -5 0 -10 -6 -10 -13 0
-16 -34 -50 -42 -41 -3 3 -9 1 -13 -5 -3 -6 -1 -11 5 -11 7 0 -3 -18 -20 -40
-17 -22 -36 -37 -41 -34 -5 3 -8 2 -7 -3 4 -14 -13 -53 -23 -53 -5 0 -9 -7 -9
-15 0 -8 -4 -15 -10 -15 -5 0 -10 -6 -10 -13 0 -8 -9 -22 -20 -32 -19 -17 -20
-17 -20 -1 0 10 5 14 12 10 7 -4 8 -3 4 5 -12 19 -28 1 -23 -26 3 -15 -1 -27
-9 -30 -8 -3 -11 -10 -7 -16 4 -6 0 -8 -9 -4 -12 4 -14 1 -11 -14 3 -11 0 -19
-6 -19 -7 0 -9 5 -5 12 4 6 3 8 -4 4 -6 -3 -9 -15 -7 -25 2 -12 -11 -34 -33
-57 -20 -21 -31 -34 -24 -30 11 7 12 4 3 -13 -7 -11 -14 -21 -17 -21 -3 0 -3
4 0 8 2 4 0 14 -5 22 -9 13 -10 13 -8 0 4 -40 -4 -61 -33 -91 -18 -18 -27 -29
-20 -25 11 7 11 4 0 -13 -15 -24 -33 -29 -24 -6 3 8 1 15 -4 15 -14 0 -12 -27
2 -36 7 -5 5 -11 -7 -21 -11 -7 -15 -13 -10 -13 4 0 -5 -12 -21 -26 -16 -15
-23 -23 -16 -20 6 4 12 3 12 -3 0 -5 -3 -11 -7 -13 -5 -1 -16 -16 -25 -33 -10
-16 -22 -29 -28 -27 -7 1 -9 -2 -6 -7 4 -5 -3 -27 -15 -48 -12 -21 -38 -67
-57 -103 -19 -36 -39 -71 -44 -77 -6 -7 -7 -13 -2 -13 5 0 2 -6 -6 -13 -8 -7
-16 -19 -18 -27 -2 -8 -17 -43 -32 -77 -22 -47 -34 -63 -50 -63 -16 0 -20 -7
-21 -37 -1 -65 -10 -138 -18 -143 -8 -5 -47 -115 -41 -115 2 0 -2 -9 -8 -21
-6 -12 -25 -73 -41 -137 -25 -94 -42 -136 -96 -227 -36 -61 -76 -130 -89 -153
-61 -108 -130 -225 -155 -262 -32 -48 -57 -53 -55 -11 1 28 0 28 -12 11 -8
-10 -14 -16 -14 -13 0 4 -3 14 -7 24 -5 13 -3 15 8 9 8 -5 11 -5 6 1 -5 5 -14
9 -20 9 -6 0 -21 16 -34 35 -12 19 -26 40 -30 46 -17 23 -33 52 -60 107 -15
31 -31 57 -35 57 -5 0 -8 7 -8 15 0 8 -4 15 -10 15 -5 0 -10 11 -10 24 0 14
-7 32 -16 40 -9 9 -18 31 -21 49 -3 17 -11 43 -18 57 -31 62 -98 304 -120 433
-3 21 -10 35 -15 32 -5 -3 -5 7 0 24 4 16 6 31 4 33 -9 10 -18 176 -18 338 0
184 7 300 29 445 4 22 9 54 11 70 9 57 33 180 38 195 3 8 7 27 10 42 6 34 84
312 101 358 7 19 25 69 40 110 15 41 33 89 41 105 7 17 25 59 40 95 38 93 206
427 329 655 18 33 74 141 125 240 148 288 191 369 202 383 6 6 7 12 4 12 -4 0
7 20 25 45 18 25 33 44 35 42 1 -1 26 -42 54 -92z m1949 -2497 c-4 -34 2 -58
16 -58 10 0 15 -10 15 -30 0 -26 3 -30 29 -30 24 0 30 -5 35 -30 3 -18 12 -30
21 -30 8 0 15 -7 15 -15 0 -8 7 -15 15 -15 8 0 15 -7 15 -15 0 -13 13 -18 46
-18 6 0 10 -9 9 -21 -3 -35 6 -46 37 -46 22 0 29 -4 27 -17 -3 -37 1 -43 36
-43 29 0 35 -4 33 -17 -2 -10 3 -17 10 -15 7 1 15 -5 18 -13 4 -8 12 -15 20
-15 9 0 14 -12 14 -35 0 -32 2 -35 30 -35 20 0 30 -5 30 -15 0 -11 11 -15 40
-15 28 0 45 -6 57 -20 10 -11 25 -20 35 -20 10 0 18 -7 18 -15 0 -10 10 -15
29 -15 22 0 30 -6 35 -25 5 -19 13 -25 32 -25 23 0 25 -3 20 -26 -4 -14 -15
-38 -26 -53 -15 -22 -78 -130 -192 -331 -11 -19 -39 -66 -61 -105 -128 -217
-131 -224 -123 -279 4 -25 11 -46 17 -46 5 0 9 -5 9 -10 0 -6 12 -29 26 -52
14 -23 38 -62 51 -87 34 -61 49 -88 78 -136 31 -52 31 -55 -5 -55 -21 0 -30 5
-31 18 -1 14 -2 14 -6 1 -3 -13 -24 -16 -124 -18 -89 -1 -125 -5 -135 -16 -17
-17 -47 -8 -40 11 4 10 -2 12 -24 7 -22 -4 -31 -1 -36 11 -4 10 -18 16 -35 16
-18 0 -32 6 -36 16 -5 15 -7 15 -15 0 -11 -20 -64 -21 -75 -2 -7 12 -57 25
-105 26 -10 0 -18 7 -18 15 0 10 -10 15 -29 15 -22 0 -30 6 -35 25 -4 14 -13
25 -21 25 -8 0 -15 9 -15 20 0 11 -7 20 -15 20 -8 0 -15 7 -15 15 0 13 -25 21
-53 16 -4 -1 -7 7 -5 16 2 15 -4 18 -35 18 -32 0 -38 3 -36 20 4 56 0 65 -31
65 -19 0 -30 5 -29 13 1 6 1 36 0 65 -1 39 -5 52 -16 52 -8 0 -15 7 -15 15 0
8 -7 15 -15 15 -8 0 -15 6 -15 14 0 8 -7 16 -15 20 -21 8 -19 46 3 47 16 1 16
2 0 6 -10 2 -18 11 -18 18 0 7 -5 15 -10 17 -6 2 -13 15 -15 31 -4 20 -1 27
10 27 8 0 15 9 15 20 0 11 -6 20 -13 20 -25 0 -21 96 6 144 13 22 86 149 162
281 76 132 146 254 155 270 9 17 38 65 64 108 25 43 46 81 46 84 0 3 8 17 18
31 11 15 32 52 49 82 49 90 58 105 68 112 15 12 26 9 24 -4z m-5304 -2342 c11
-16 25 -36 30 -45 6 -9 12 -18 15 -21 9 -9 65 -84 75 -101 6 -10 20 -30 31
-46 l22 -28 -223 0 -223 0 15 30 c9 17 47 83 84 148 38 65 69 121 69 124 0 4
7 15 16 24 18 20 17 21 89 -85z m10178 47 c14 -29 110 -194 139 -241 9 -15 17
-32 17 -37 1 -7 -68 -10 -196 -9 -109 1 -201 3 -205 3 -7 1 10 25 40 56 6 8
12 16 12 20 0 3 21 34 48 68 26 35 63 86 82 115 19 29 38 52 42 52 3 0 13 -12
21 -27z"/>
<path d="M6737 6565 c-4 -8 -3 -16 1 -19 4 -3 9 4 9 15 2 23 -3 25 -10 4z"/>
<path d="M6736 6512 c-3 -5 1 -9 9 -9 8 0 12 4 9 9 -3 4 -7 8 -9 8 -2 0 -6 -4
-9 -8z"/>
<path d="M6716 6472 c-3 -5 1 -9 9 -9 8 0 12 4 9 9 -3 4 -7 8 -9 8 -2 0 -6 -4
-9 -8z"/>
<path d="M6707 6429 c7 -7 15 -10 18 -7 3 3 -2 9 -12 12 -14 6 -15 5 -6 -5z"/>
<path d="M6750 6430 c-9 -6 -10 -10 -3 -10 6 0 15 5 18 10 8 12 4 12 -15 0z"/>
<path d="M6675 6419 c-4 -6 -5 -12 -2 -15 2 -3 7 2 10 11 7 17 1 20 -8 4z"/>
<path d="M6695 6400 c-4 -6 1 -7 11 -3 13 5 15 3 9 -7 -5 -9 -4 -11 4 -6 6 4
9 12 6 17 -8 12 -22 12 -30 -1z"/>
<path d="M6617 6393 c-9 -8 12 -33 27 -33 6 0 3 5 -7 11 -9 6 -15 14 -12 20 7
10 2 12 -8 2z"/>
<path d="M6595 6350 c-3 -5 -1 -10 4 -10 6 0 11 5 11 10 0 6 -2 10 -4 10 -3 0
-8 -4 -11 -10z"/>
<path d="M6666 6352 c-3 -4 4 -9 15 -9 23 -2 25 3 4 10 -8 4 -16 3 -19 -1z"/>
<path d="M6556 6328 c3 -5 10 -6 15 -3 13 9 11 12 -6 12 -8 0 -12 -4 -9 -9z"/>
<path d="M6655 6321 c-3 -5 0 -13 6 -17 7 -4 9 -3 5 4 -3 5 0 13 6 15 9 4 10
6 1 6 -6 1 -14 -3 -18 -8z"/>
<path d="M6633 6308 c3 -9 1 -19 -6 -22 -9 -3 -9 -5 0 -5 18 -1 23 13 11 29
-8 12 -9 12 -5 -2z"/>
<path d="M6551 6297 c2 -2 11 -8 20 -15 12 -9 16 -9 16 1 0 7 -9 14 -20 14
-11 1 -18 1 -16 0z"/>
<path d="M6496 6265 c-9 -26 -7 -32 5 -12 6 10 9 21 6 23 -2 3 -7 -2 -11 -11z"/>
<path d="M6590 6249 c0 -5 5 -7 10 -4 6 3 10 8 10 11 0 2 -4 4 -10 4 -5 0 -10
-5 -10 -11z"/>
<path d="M6584 6226 c20 -16 37 -13 35 7 0 9 -2 9 -6 0 -3 -10 -10 -10 -26 -2
-21 10 -21 9 -3 -5z"/>
<path d="M6491 6217 c-8 -10 -7 -14 2 -14 8 0 14 6 14 14 0 7 -1 13 -2 13 -2
0 -8 -6 -14 -13z"/>
<path d="M6535 6210 c1 -11 5 -23 10 -27 4 -5 5 -2 1 5 -4 7 -1 12 8 12 9 0
16 5 16 12 0 6 -3 8 -7 5 -3 -4 -11 -2 -18 3 -8 7 -11 4 -10 -10z"/>
<path d="M6521 6164 c0 -11 3 -14 6 -6 3 7 2 16 -1 19 -3 4 -6 -2 -5 -13z"/>
<path d="M6550 6159 c0 -5 5 -7 10 -4 6 3 10 8 10 11 0 2 -4 4 -10 4 -5 0 -10
-5 -10 -11z"/>
<path d="M6466 6148 c3 -5 10 -6 15 -3 13 9 11 12 -6 12 -8 0 -12 -4 -9 -9z"/>
<path d="M6490 6127 c0 -4 12 -5 26 -3 38 7 40 14 5 12 -17 0 -31 -4 -31 -9z"/>
<path d="M6467 6116 c-4 -10 -3 -15 3 -11 6 3 10 1 10 -6 0 -7 3 -10 6 -6 3 3
2 13 -4 22 -8 16 -9 16 -15 1z"/>
<path d="M6355 6070 c3 -5 8 -10 11 -10 2 0 4 5 4 10 0 6 -5 10 -11 10 -5 0
-7 -4 -4 -10z"/>
<path d="M6426 6068 c3 -5 10 -6 15 -3 13 9 11 12 -6 12 -8 0 -12 -4 -9 -9z"/>
<path d="M6460 6075 c0 -7 30 -13 34 -7 3 4 -4 9 -15 9 -10 1 -19 0 -19 -2z"/>
<path d="M6395 6050 c3 -5 8 -10 11 -10 2 0 4 5 4 10 0 6 -5 10 -11 10 -5 0
-7 -4 -4 -10z"/>
<path d="M6454 6044 c4 -11 2 -15 -8 -11 -15 6 -16 -17 -1 -30 4 -4 5 -3 2 4
-4 6 -2 13 5 15 14 5 20 38 6 38 -6 0 -7 -7 -4 -16z"/>
<path d="M6402 6010 c-18 -29 -15 -38 4 -12 9 13 14 25 12 27 -2 2 -9 -5 -16
-15z"/>
<path d="M6295 5990 c3 -5 8 -10 11 -10 2 0 4 5 4 10 0 6 -5 10 -11 10 -5 0
-7 -4 -4 -10z"/>
<path d="M6347 5961 c-4 -17 -3 -21 5 -13 5 5 8 16 6 23 -3 8 -7 3 -11 -10z"/>
<path d="M6296 5931 c8 -8 43 -8 38 0 -2 4 -13 7 -24 6 -10 -1 -17 -3 -14 -6z"/>
<path d="M6355 5930 c-3 -6 1 -7 9 -4 18 7 21 14 7 14 -6 0 -13 -4 -16 -10z"/>
<path d="M6322 5890 c0 -14 2 -19 5 -12 2 6 2 18 0 25 -3 6 -5 1 -5 -13z"/>
<path d="M6249 5854 c-14 -17 -21 -67 -8 -59 4 3 6 13 4 23 -1 9 4 25 13 35 8
9 13 17 10 17 -3 0 -12 -7 -19 -16z"/>
<path d="M6195 5850 c-3 -5 -1 -10 4 -10 6 0 11 5 11 10 0 6 -2 10 -4 10 -3 0
-8 -4 -11 -10z"/>
<path d="M6320 5850 c-8 -5 -10 -10 -5 -10 6 0 17 5 25 10 8 5 11 10 5 10 -5
0 -17 -5 -25 -10z"/>
<path d="M6297 5829 c7 -7 15 -10 18 -7 3 3 -2 9 -12 12 -14 6 -15 5 -6 -5z"/>
<path d="M6272 5816 c7 -8 15 -12 17 -11 5 6 -10 25 -20 25 -5 0 -4 -6 3 -14z"/>
<path d="M6190 5816 c0 -2 7 -7 16 -10 8 -3 12 -2 9 4 -6 10 -25 14 -25 6z"/>
<path d="M6126 5788 c3 -5 10 -6 15 -3 13 9 11 12 -6 12 -8 0 -12 -4 -9 -9z"/>
<path d="M6173 5766 c-3 -6 -3 -8 2 -4 4 4 14 3 22 -4 7 -6 16 -8 20 -4 3 3 1
6 -6 6 -7 0 -10 4 -7 8 3 5 -2 9 -10 9 -8 0 -18 -5 -21 -11z"/>
<path d="M6235 5761 c-3 -5 0 -13 6 -17 7 -4 9 -3 5 4 -3 5 0 13 6 15 9 4 10
6 1 6 -6 1 -14 -3 -18 -8z"/>
<path d="M6213 5721 c10 -12 9 -14 -6 -8 -12 5 -16 3 -11 -5 5 -8 2 -9 -9 -5
-24 9 -21 0 4 -14 13 -6 19 -7 15 -1 -3 6 -1 12 6 14 16 6 18 35 2 35 -11 0
-11 -3 -1 -16z"/>
<path d="M6096 5717 c3 -10 9 -15 12 -12 3 3 0 11 -7 18 -10 9 -11 8 -5 -6z"/>
<path d="M6153 5665 c0 -8 4 -12 9 -9 4 3 8 9 8 15 0 5 -4 9 -8 9 -5 0 -9 -7
-9 -15z"/>
<path d="M6055 5630 c-3 -5 -1 -10 4 -10 6 0 11 5 11 10 0 6 -2 10 -4 10 -3 0
-8 -4 -11 -10z"/>
<path d="M6148 5613 c6 -2 18 -2 25 0 6 3 1 5 -13 5 -14 0 -19 -2 -12 -5z"/>
<path d="M6115 5600 c-3 -5 -1 -10 4 -10 6 0 11 5 11 10 0 6 -2 10 -4 10 -3 0
-8 -4 -11 -10z"/>
<path d="M6056 5563 c-6 -14 -5 -15 5 -6 7 7 10 15 7 18 -3 3 -9 -2 -12 -12z"/>
<path d="M6116 5565 c-11 -8 -16 -15 -10 -15 5 0 18 7 28 15 11 8 16 15 10 15
-5 0 -18 -7 -28 -15z"/>
<path d="M6015 5550 c-3 -5 -1 -10 4 -10 6 0 11 5 11 10 0 6 -2 10 -4 10 -3 0
-8 -4 -11 -10z"/>
<path d="M6064 5499 c0 -17 1 -17 20 -1 18 16 19 16 13 -1 -4 -11 -3 -16 4
-12 15 10 5 28 -17 30 -13 1 -20 -5 -20 -16z"/>
<path d="M5975 5470 c-2 -3 5 -6 15 -7 11 -1 22 2 24 5 3 4 -4 8 -15 8 -11 0
-22 -3 -24 -6z"/>
<path d="M6035 5450 c3 -5 8 -10 11 -10 2 0 4 5 4 10 0 6 -5 10 -11 10 -5 0
-7 -4 -4 -10z"/>
<path d="M5936 5385 c-9 -26 -7 -32 5 -12 6 10 9 21 6 23 -2 3 -7 -2 -11 -11z"/>
<path d="M5995 5392 c3 -3 -3 -15 -12 -26 -16 -19 -16 -19 -1 -7 9 7 22 10 27
7 5 -4 13 -1 17 5 5 8 3 9 -6 4 -9 -6 -12 -4 -8 7 4 9 0 15 -8 15 -8 0 -12 -3
-9 -5z"/>
<path d="M5275 4011 c-3 -5 -2 -12 3 -15 5 -3 9 1 9 9 0 17 -3 19 -12 6z"/>
</g>
</svg>
